# xmcd CD database file
#
# Track frame offsets:
#	150
#	10070
#	27047
#	47397
#	56717
#	67252
#	82687
#	96500
#	111225
#	123725
#	136647
#	148887
#	163152
#	177965
#
# Disc length: 2579 seconds
#
# Revision: 0
# Processed by: cddbd v1.4PL0 Copyright (c) Steve Scherf et al.
# Submitted via: CDex 1.50
#
DISCID=bf0a110e
DTITLE=Sérgio Reis - Adeus Mariana
DYEAR=2000
DGENRE=Country
TTITLE0=Adeus Mariana
TTITLE1=É disso que o velho gosta
TTITLE2=Pinga ni mim
TTITLE3=Sarita
TTITLE4=Gaúcho de Passo Fundo
TTITLE5=Coração de luto
TTITLE6=Sede de carinho
TTITLE7=Panela velha
TTITLE8=Cavalo preto
TTITLE9=Sou herança
TTITLE10=Pára Pedro
TTITLE11=Negro da gaita
TTITLE12=Baita macho
TTITLE13=Tchau amor
EXTD=YEAR: 2000
EXTT0=
EXTT1=
EXTT2=
EXTT3=
EXTT4=
EXTT5=
EXTT6=
EXTT7=
EXTT8=
EXTT9=
EXTT10=
EXTT11=
EXTT12=
EXTT13=
PLAYORDER=
